<svg width="24" height="24" viewBox="0 0 24 24" fill="none" xmlns="http://www.w3.org/2000/svg">
<path fill-rule="evenodd" clip-rule="evenodd" d="M11.7063 5.29372C11.7994 5.38659 11.8733 5.49692 11.9237 5.61839C11.9741 5.73985 12 5.87006 12 6.00157C12 6.13307 11.9741 6.26329 11.9237 6.38475C11.8733 6.50622 11.7994 6.61654 11.7063 6.70941L6.41471 12.0003L11.7063 17.2911C11.7993 17.3841 11.873 17.4944 11.9233 17.6159C11.9736 17.7373 11.9995 17.8675 11.9995 17.999C11.9995 18.1304 11.9736 18.2606 11.9233 18.382C11.873 18.5035 11.7993 18.6138 11.7063 18.7068C11.6134 18.7998 11.5031 18.8735 11.3817 18.9238C11.2602 18.9741 11.1301 19 10.9987 19C10.8672 19 10.7371 18.9741 10.6157 18.9238C10.4942 18.8735 10.3839 18.7998 10.291 18.7068L4.29366 12.7081C4.20057 12.6152 4.12672 12.5049 4.07633 12.3834C4.02594 12.262 4 12.1318 4 12.0003C4 11.8688 4.02594 11.7385 4.07633 11.6171C4.12672 11.4956 4.20057 11.3853 4.29366 11.2924L10.291 5.29372C10.3838 5.20062 10.4941 5.12675 10.6156 5.07635C10.737 5.02594 10.8672 5 10.9987 5C11.1301 5 11.2603 5.02594 11.3818 5.07635C11.5032 5.12675 11.6135 5.20062 11.7063 5.29372Z" fill="white"/>
<path fill-rule="evenodd" clip-rule="evenodd" d="M5 12C5 11.7348 5.10536 11.4804 5.29289 11.2929C5.48043 11.1054 5.73478 11 6 11H19C19.2652 11 19.5196 11.1054 19.7071 11.2929C19.8946 11.4804 20 11.7348 20 12C20 12.2652 19.8946 12.5196 19.7071 12.7071C19.5196 12.8946 19.2652 13 19 13H6C5.73478 13 5.48043 12.8946 5.29289 12.7071C5.10536 12.5196 5 12.2652 5 12Z" fill="white"/>
</svg>
