<svg width="24" height="24" viewBox="0 0 24 24" fill="none" xmlns="http://www.w3.org/2000/svg">
<path fill-rule="evenodd" clip-rule="evenodd" d="M18.75 3H5.25C4.65326 3 4.08097 3.23705 3.65901 3.65901C3.23705 4.08097 3 4.65326 3 5.25L3 18.75C3 19.3467 3.23705 19.919 3.65901 20.341C4.08097 20.7629 4.65326 21 5.25 21H18.75C19.3467 21 19.919 20.7629 20.341 20.341C20.7629 19.919 21 19.3467 21 18.75V5.25C21 4.65326 20.7629 4.08097 20.341 3.65901C19.919 3.23705 19.3467 3 18.75 3V3ZM4.125 7.33913C4.125 6.807 4.629 6.375 5.25 6.375H18.75C19.371 6.375 19.875 6.807 19.875 7.33913V18.9109C19.875 19.443 19.371 19.875 18.75 19.875H5.25C4.629 19.875 4.125 19.443 4.125 18.9109V7.33913Z" fill="#A1AEB7"/>
<path fill-rule="evenodd" clip-rule="evenodd" d="M10.3125 10.875C10.6109 10.875 10.897 10.7565 11.108 10.5455C11.319 10.3345 11.4375 10.0484 11.4375 9.75C11.4375 9.45163 11.319 9.16548 11.108 8.95451C10.897 8.74353 10.6109 8.625 10.3125 8.625C10.0141 8.625 9.72798 8.74353 9.517 8.95451C9.30603 9.16548 9.1875 9.45163 9.1875 9.75C9.1875 10.0484 9.30603 10.3345 9.517 10.5455C9.72798 10.7565 10.0141 10.875 10.3125 10.875ZM13.6875 10.875C13.9859 10.875 14.272 10.7565 14.483 10.5455C14.694 10.3345 14.8125 10.0484 14.8125 9.75C14.8125 9.45163 14.694 9.16548 14.483 8.95451C14.272 8.74353 13.9859 8.625 13.6875 8.625C13.3891 8.625 13.103 8.74353 12.892 8.95451C12.681 9.16548 12.5625 9.45163 12.5625 9.75C12.5625 10.0484 12.681 10.3345 12.892 10.5455C13.103 10.7565 13.3891 10.875 13.6875 10.875ZM17.0625 10.875C17.3609 10.875 17.647 10.7565 17.858 10.5455C18.069 10.3345 18.1875 10.0484 18.1875 9.75C18.1875 9.45163 18.069 9.16548 17.858 8.95451C17.647 8.74353 17.3609 8.625 17.0625 8.625C16.7641 8.625 16.478 8.74353 16.267 8.95451C16.056 9.16548 15.9375 9.45163 15.9375 9.75C15.9375 10.0484 16.056 10.3345 16.267 10.5455C16.478 10.7565 16.7641 10.875 17.0625 10.875ZM6.9375 14.25C7.23587 14.25 7.52202 14.1315 7.73299 13.9205C7.94397 13.7095 8.0625 13.4234 8.0625 13.125C8.0625 12.8266 7.94397 12.5405 7.73299 12.3295C7.52202 12.1185 7.23587 12 6.9375 12C6.63913 12 6.35298 12.1185 6.142 12.3295C5.93103 12.5405 5.8125 12.8266 5.8125 13.125C5.8125 13.4234 5.93103 13.7095 6.142 13.9205C6.35298 14.1315 6.63913 14.25 6.9375 14.25ZM10.3125 14.25C10.6109 14.25 10.897 14.1315 11.108 13.9205C11.319 13.7095 11.4375 13.4234 11.4375 13.125C11.4375 12.8266 11.319 12.5405 11.108 12.3295C10.897 12.1185 10.6109 12 10.3125 12C10.0141 12 9.72798 12.1185 9.517 12.3295C9.30603 12.5405 9.1875 12.8266 9.1875 13.125C9.1875 13.4234 9.30603 13.7095 9.517 13.9205C9.72798 14.1315 10.0141 14.25 10.3125 14.25ZM13.6875 14.25C13.9859 14.25 14.272 14.1315 14.483 13.9205C14.694 13.7095 14.8125 13.4234 14.8125 13.125C14.8125 12.8266 14.694 12.5405 14.483 12.3295C14.272 12.1185 13.9859 12 13.6875 12C13.3891 12 13.103 12.1185 12.892 12.3295C12.681 12.5405 12.5625 12.8266 12.5625 13.125C12.5625 13.4234 12.681 13.7095 12.892 13.9205C13.103 14.1315 13.3891 14.25 13.6875 14.25ZM17.0625 14.25C17.3609 14.25 17.647 14.1315 17.858 13.9205C18.069 13.7095 18.1875 13.4234 18.1875 13.125C18.1875 12.8266 18.069 12.5405 17.858 12.3295C17.647 12.1185 17.3609 12 17.0625 12C16.7641 12 16.478 12.1185 16.267 12.3295C16.056 12.5405 15.9375 12.8266 15.9375 13.125C15.9375 13.4234 16.056 13.7095 16.267 13.9205C16.478 14.1315 16.7641 14.25 17.0625 14.25ZM6.9375 17.625C7.23587 17.625 7.52202 17.5065 7.73299 17.2955C7.94397 17.0845 8.0625 16.7984 8.0625 16.5C8.0625 16.2016 7.94397 15.9155 7.73299 15.7045C7.52202 15.4935 7.23587 15.375 6.9375 15.375C6.63913 15.375 6.35298 15.4935 6.142 15.7045C5.93103 15.9155 5.8125 16.2016 5.8125 16.5C5.8125 16.7984 5.93103 17.0845 6.142 17.2955C6.35298 17.5065 6.63913 17.625 6.9375 17.625ZM10.3125 17.625C10.6109 17.625 10.897 17.5065 11.108 17.2955C11.319 17.0845 11.4375 16.7984 11.4375 16.5C11.4375 16.2016 11.319 15.9155 11.108 15.7045C10.897 15.4935 10.6109 15.375 10.3125 15.375C10.0141 15.375 9.72798 15.4935 9.517 15.7045C9.30603 15.9155 9.1875 16.2016 9.1875 16.5C9.1875 16.7984 9.30603 17.0845 9.517 17.2955C9.72798 17.5065 10.0141 17.625 10.3125 17.625ZM13.6875 17.625C13.9859 17.625 14.272 17.5065 14.483 17.2955C14.694 17.0845 14.8125 16.7984 14.8125 16.5C14.8125 16.2016 14.694 15.9155 14.483 15.7045C14.272 15.4935 13.9859 15.375 13.6875 15.375C13.3891 15.375 13.103 15.4935 12.892 15.7045C12.681 15.9155 12.5625 16.2016 12.5625 16.5C12.5625 16.7984 12.681 17.0845 12.892 17.2955C13.103 17.5065 13.3891 17.625 13.6875 17.625Z" fill="#A1AEB7"/>
</svg>
