<svg width="24" height="24" viewBox="0 0 24 24" fill="none" xmlns="http://www.w3.org/2000/svg">
<path fill-rule="evenodd" clip-rule="evenodd" d="M8.65304 3.63C9.89404 3.2988 11.2112 3 12 3C12.7877 3 14.106 3.2988 15.347 3.63C16.4539 3.92973 17.5536 4.25582 18.6452 4.608C19.2735 4.8096 19.747 5.3556 19.8386 6.0288C20.5204 11.0652 18.9391 14.7972 17.0223 17.2668C16.2055 18.3267 15.2357 19.257 14.1453 20.0268C13.7662 20.2946 13.3654 20.5299 12.9471 20.73C12.6259 20.8788 12.2832 21 12 21C11.7169 21 11.3742 20.8788 11.0529 20.73C10.6346 20.53 10.2338 20.2948 9.85477 20.0268C8.76482 19.2569 7.79544 18.3265 6.97895 17.2668C5.05976 14.7972 3.47966 11.0652 4.16144 6.0288C4.20702 5.70249 4.3433 5.39586 4.5545 5.14442C4.7657 4.89297 5.04318 4.70699 5.35483 4.608C6.44644 4.25583 7.54615 3.92974 8.65304 3.63ZM12.6128 11.8908C13.0051 11.746 13.3346 11.467 13.544 11.1025C13.7533 10.7379 13.8292 10.3108 13.7585 9.89553C13.6877 9.4803 13.4748 9.10326 13.1568 8.83008C12.8387 8.55689 12.4358 8.40488 12.018 8.40051C11.6003 8.39613 11.1943 8.53968 10.8707 8.80615C10.5471 9.07262 10.3265 9.44512 10.2472 9.85878C10.1679 10.2724 10.235 10.701 10.4368 11.0699C10.6386 11.4388 10.9623 11.7246 11.3516 11.8776C11.3265 11.9292 11.3088 11.9842 11.2992 12.0408L10.903 14.4408C10.8889 14.5267 10.8934 14.6147 10.9164 14.6987C10.9393 14.7826 10.9801 14.8606 11.0359 14.927C11.0917 14.9935 11.1612 15.0469 11.2396 15.0835C11.3179 15.1202 11.4032 15.1392 11.4896 15.1392H12.4831C12.5698 15.1392 12.6555 15.1202 12.7341 15.0833C12.8128 15.0465 12.8825 14.9927 12.9384 14.9259C12.9942 14.859 13.0349 14.7806 13.0576 14.6962C13.0803 14.6118 13.0844 14.5234 13.0697 14.4372L12.6568 12.0372C12.6484 11.9867 12.6336 11.9375 12.6128 11.8908Z" fill="#5E6674"/>
</svg>
