<svg width="20" height="20" viewBox="0 0 20 20" fill="none" xmlns="http://www.w3.org/2000/svg">
<path fill-rule="evenodd" clip-rule="evenodd" d="M19.1926 3.30764C19.2508 3.3657 19.2969 3.43467 19.3284 3.5106C19.36 3.58653 19.3762 3.66793 19.3762 3.75014C19.3762 3.83235 19.36 3.91375 19.3284 3.98968C19.2969 4.06561 19.2508 4.13458 19.1926 4.19264L10.4426 12.9426C10.3845 13.0008 10.3155 13.047 10.2396 13.0785C10.1637 13.11 10.0823 13.1263 10.0001 13.1263C9.91785 13.1263 9.83645 13.11 9.76052 13.0785C9.68458 13.047 9.61561 13.0008 9.55756 12.9426L5.80756 9.19264C5.74945 9.13453 5.70335 9.06554 5.6719 8.98962C5.64045 8.9137 5.62427 8.83232 5.62427 8.75014C5.62427 8.66796 5.64045 8.58659 5.6719 8.51066C5.70335 8.43474 5.74945 8.36575 5.80756 8.30764C5.86567 8.24953 5.93465 8.20343 6.01058 8.17199C6.0865 8.14054 6.16788 8.12435 6.25006 8.12435C6.33224 8.12435 6.41361 8.14054 6.48954 8.17199C6.56546 8.20343 6.63445 8.24953 6.69256 8.30764L10.0001 11.6164L18.3076 3.30764C18.3656 3.24944 18.4346 3.20326 18.5105 3.17175C18.5864 3.14024 18.6678 3.12402 18.7501 3.12402C18.8323 3.12402 18.9137 3.14024 18.9896 3.17175C19.0655 3.20326 19.1345 3.24944 19.1926 3.30764Z" fill="white"/>
<path fill-rule="evenodd" clip-rule="evenodd" d="M1.875 16.25C1.875 16.7473 2.07254 17.2242 2.42417 17.5758C2.77581 17.9275 3.25272 18.125 3.75 18.125H16.25C16.7473 18.125 17.2242 17.9275 17.5758 17.5758C17.9275 17.2242 18.125 16.7473 18.125 16.25V10C18.125 9.83424 18.0592 9.67527 17.9419 9.55806C17.8247 9.44085 17.6658 9.375 17.5 9.375C17.3342 9.375 17.1753 9.44085 17.0581 9.55806C16.9408 9.67527 16.875 9.83424 16.875 10V16.25C16.875 16.4158 16.8092 16.5747 16.6919 16.6919C16.5747 16.8092 16.4158 16.875 16.25 16.875H3.75C3.58424 16.875 3.42527 16.8092 3.30806 16.6919C3.19085 16.5747 3.125 16.4158 3.125 16.25V3.75C3.125 3.58424 3.19085 3.42527 3.30806 3.30806C3.42527 3.19085 3.58424 3.125 3.75 3.125H13.75C13.9158 3.125 14.0747 3.05915 14.1919 2.94194C14.3092 2.82473 14.375 2.66576 14.375 2.5C14.375 2.33424 14.3092 2.17527 14.1919 2.05806C14.0747 1.94085 13.9158 1.875 13.75 1.875H3.75C3.25272 1.875 2.77581 2.07254 2.42417 2.42417C2.07254 2.77581 1.875 3.25272 1.875 3.75V16.25Z" fill="white"/>
</svg>
