<svg width="24" height="24" viewBox="0 0 24 24" fill="none" xmlns="http://www.w3.org/2000/svg">
<path d="M13.3333 2.5H6.66667C5.95942 2.5 5.28115 2.78597 4.78105 3.295C4.28095 3.80402 4 4.49441 4 5.21429V18.7857C4 19.5056 4.28095 20.196 4.78105 20.705C5.28115 21.214 5.95942 21.5 6.66667 21.5H13.3333V20.1429H6.66667C6.31304 20.1429 5.97391 19.9999 5.72386 19.7454C5.47381 19.4908 5.33333 19.1457 5.33333 18.7857V5.21429C5.33333 4.85435 5.47381 4.50915 5.72386 4.25464C5.97391 4.00013 6.31304 3.85714 6.66667 3.85714H13.3333V7.25C13.3333 7.7899 13.544 8.3077 13.9191 8.68947C14.2942 9.07124 14.8029 9.28571 15.3333 9.28571H18.6667V12H20V9.28571L13.3333 2.5Z" fill="#5E6674"/>
<path fill-rule="evenodd" clip-rule="evenodd" d="M22.7864 14.7202C22.8541 14.7899 22.9078 14.8726 22.9445 14.9637C22.9811 15.0548 23 15.1524 23 15.251C23 15.3496 22.9811 15.4472 22.9445 15.5383C22.9078 15.6294 22.8541 15.7121 22.7864 15.7818L18.424 20.2798C18.3564 20.3496 18.2762 20.405 18.1879 20.4428C18.0995 20.4805 18.0048 20.5 17.9092 20.5C17.8136 20.5 17.7189 20.4805 17.6305 20.4428C17.5422 20.405 17.462 20.3496 17.3944 20.2798L15.2132 18.0308C15.1456 17.9611 15.092 17.8783 15.0554 17.7872C15.0188 17.6962 15 17.5986 15 17.5C15 17.4014 15.0188 17.3038 15.0554 17.2128C15.092 17.1217 15.1456 17.0389 15.2132 16.9692C15.2808 16.8995 15.3611 16.8442 15.4494 16.8065C15.5377 16.7688 15.6324 16.7494 15.728 16.7494C15.8236 16.7494 15.9183 16.7688 16.0066 16.8065C16.0949 16.8442 16.1752 16.8995 16.2428 16.9692L17.9092 18.689L21.7569 14.7202C21.8244 14.6504 21.9046 14.595 21.993 14.5572C22.0813 14.5195 22.176 14.5 22.2716 14.5C22.3673 14.5 22.462 14.5195 22.5503 14.5572C22.6386 14.595 22.7189 14.6504 22.7864 14.7202Z" fill="#5E6674"/>
</svg>
