<svg width="24" height="24" viewBox="0 0 24 24" fill="none" xmlns="http://www.w3.org/2000/svg">
<path fill-rule="evenodd" clip-rule="evenodd" d="M15 19C16.0609 19 17.0783 18.5786 17.8284 17.8284C18.5786 17.0783 19 16.0609 19 15C19 13.9391 18.5786 12.9217 17.8284 12.1716C17.0783 11.4214 16.0609 11 15 11C13.9391 11 12.9217 11.4214 12.1716 12.1716C11.4214 12.9217 11 13.9391 11 15C11 16.0609 11.4214 17.0783 12.1716 17.8284C12.9217 18.5786 13.9391 19 15 19ZM20 15C20 16.3261 19.4732 17.5979 18.5355 18.5355C17.5979 19.4732 16.3261 20 15 20C13.6739 20 12.4021 19.4732 11.4645 18.5355C10.5268 17.5979 10 16.3261 10 15C10 13.6739 10.5268 12.4021 11.4645 11.4645C12.4021 10.5268 13.6739 10 15 10C16.3261 10 17.5979 10.5268 18.5355 11.4645C19.4732 12.4021 20 13.6739 20 15Z" fill="#FAFBFC"/>
<path d="M13.438 15.944C13.485 16.54 13.956 17.004 14.801 17.06V17.5H15.176V17.057C16.051 16.996 16.562 16.528 16.562 15.85C16.562 15.232 16.172 14.914 15.472 14.75L15.176 14.68V13.48C15.552 13.523 15.79 13.728 15.847 14.012H16.505C16.458 13.437 15.965 12.988 15.176 12.939V12.5H14.801V12.95C14.054 13.023 13.546 13.472 13.546 14.108C13.546 14.67 13.924 15.028 14.553 15.174L14.801 15.235V16.507C14.417 16.449 14.162 16.237 14.105 15.944H13.438ZM14.798 14.59C14.429 14.505 14.229 14.33 14.229 14.068C14.229 13.774 14.445 13.554 14.801 13.49V14.59H14.798ZM15.23 15.336C15.679 15.44 15.885 15.608 15.885 15.905C15.885 16.244 15.628 16.476 15.176 16.519V15.324L15.23 15.336Z" fill="#FAFBFC"/>
<path d="M5 4C4.73478 4 4.48043 4.10536 4.29289 4.29289C4.10536 4.48043 4 4.73478 4 5V13C4 13.2652 4.10536 13.5196 4.29289 13.7071C4.48043 13.8946 4.73478 14 5 14H9.083C9.141 13.656 9.228 13.322 9.341 13H7C7 12.4696 6.78929 11.9609 6.41421 11.5858C6.03914 11.2107 5.53043 11 5 11V7C5.53043 7 6.03914 6.78929 6.41421 6.41421C6.78929 6.03914 7 5.53043 7 5H17C17 5.53043 17.2107 6.03914 17.5858 6.41421C17.9609 6.78929 18.4696 7 19 7V10.528C19.38 10.868 19.717 11.256 20 11.682V5C20 4.73478 19.8946 4.48043 19.7071 4.29289C19.5196 4.10536 19.2652 4 19 4H5Z" fill="#FAFBFC"/>
<path d="M13.998 9.083L14 9C13.9998 8.65559 13.9107 8.31707 13.7412 8.01723C13.5718 7.71738 13.3278 7.46638 13.0328 7.28852C12.7379 7.11066 12.402 7.01198 12.0578 7.00202C11.7135 6.99207 11.3725 7.07119 11.0678 7.23172C10.7631 7.39225 10.505 7.62874 10.3185 7.9183C10.1321 8.20786 10.0235 8.54066 10.0034 8.88448C9.98331 9.2283 10.0523 9.57149 10.2038 9.8808C10.3553 10.1901 10.5841 10.4551 10.868 10.65C11.7318 9.82727 12.8218 9.28157 13.998 9.083Z" fill="#FAFBFC"/>
</svg>
