<svg width="41" height="40" viewBox="0 0 41 40" fill="none" xmlns="http://www.w3.org/2000/svg">
<path d="M14.6764 0.808122C18.4286 0.272095 22.2379 0.272095 25.9901 0.808122L30.4086 1.43934C34.8084 2.06788 38.2654 5.52484 38.8939 9.92462L39.5251 14.3431C40.0612 18.0953 40.0612 21.9047 39.5251 25.6569L38.8939 30.0754C38.2654 34.4752 34.8084 37.9321 30.4086 38.5607L25.9901 39.1919C22.2379 39.7279 18.4286 39.7279 14.6764 39.1919L10.2579 38.5607C5.8581 37.9321 2.40113 34.4752 1.77259 30.0754L1.14137 25.6569C0.605347 21.9047 0.605347 18.0953 1.14137 14.3431L1.77259 9.92462C2.40113 5.52484 5.8581 2.06788 10.2579 1.43934L14.6764 0.808122Z" fill="#EDF5FD"/>
<path fill-rule="evenodd" clip-rule="evenodd" d="M23.25 10.9569C22.6002 10.9569 21.9771 11.1872 21.5176 11.597C21.0581 12.0069 20.8 12.5627 20.8 13.1423C20.8 13.2851 20.8539 13.3754 20.996 13.473C21.1643 13.5911 21.4403 13.6916 21.7963 13.7644C22.2524 13.8511 22.7187 13.8869 23.1847 13.8708H23.2092L23.25 13.8693L23.2908 13.8722H23.3137C23.4519 13.8779 23.5904 13.8774 23.7286 13.8708C24.0062 13.862 24.3607 13.8329 24.7053 13.7644C25.0597 13.6945 25.3357 13.5925 25.5056 13.4745C25.6461 13.3783 25.7 13.2851 25.7 13.1438C25.7002 12.8567 25.637 12.5723 25.5139 12.307C25.3909 12.0417 25.2105 11.8006 24.983 11.5975C24.7554 11.3944 24.4853 11.2333 24.1879 11.1234C23.8906 11.0135 23.5719 10.9569 23.25 10.9569ZM23.25 15.3277H23.2402C23.0628 15.335 22.8851 15.335 22.7077 15.3277C22.2809 15.3141 21.8562 15.2668 21.4386 15.1864C20.9764 15.0946 20.4358 14.9314 19.9932 14.6255C19.7343 14.4537 19.5245 14.2299 19.3809 13.9722C19.2373 13.7144 19.1639 13.4301 19.1667 13.1423C19.1667 12.1763 19.5969 11.2499 20.3627 10.5668C21.1284 9.88374 22.167 9.5 23.25 9.5C24.333 9.5 25.3716 9.88374 26.1373 10.5668C26.9031 11.2499 27.3333 12.1763 27.3333 13.1423C27.3333 13.8038 26.9789 14.2977 26.5068 14.624C26.0658 14.93 25.5236 15.0932 25.0613 15.1849C24.4694 15.3001 23.8636 15.3486 23.2582 15.3292H23.25V15.3277Z" fill="#FFBB00"/>
<path fill-rule="evenodd" clip-rule="evenodd" d="M17.4166 10.9569C16.7669 10.9569 16.1437 11.1872 15.6842 11.597C15.2248 12.0069 14.9666 12.5627 14.9666 13.1423C14.9666 13.2851 15.0205 13.3754 15.1626 13.473C15.3309 13.5911 15.6069 13.6916 15.963 13.7644C16.419 13.8511 16.8854 13.8869 17.3513 13.8708H17.3758L17.4166 13.8693L17.4575 13.8722H17.4803C17.6186 13.8779 17.757 13.8774 17.8952 13.8708C18.1729 13.862 18.5273 13.8329 18.8719 13.7644C19.2263 13.6945 19.5024 13.5925 19.6722 13.4745C19.8127 13.3783 19.8666 13.2851 19.8666 13.1438C19.8668 12.8567 19.8036 12.5723 19.6806 12.307C19.5575 12.0417 19.3771 11.8006 19.1496 11.5975C18.9221 11.3944 18.6519 11.2333 18.3546 11.1234C18.0572 11.0135 17.7385 10.9569 17.4166 10.9569ZM17.4166 15.3277H17.4068C17.2294 15.335 17.0518 15.335 16.8744 15.3277C16.4475 15.3141 16.0228 15.2668 15.6053 15.1864C15.143 15.0946 14.6024 14.9314 14.1598 14.6255C13.9009 14.4537 13.6911 14.2299 13.5475 13.9722C13.4039 13.7144 13.3305 13.4301 13.3333 13.1423C13.3333 12.1763 13.7635 11.2499 14.5293 10.5668C15.2951 9.88374 16.3337 9.5 17.4166 9.5C18.4996 9.5 19.5382 9.88374 20.3039 10.5668C21.0697 11.2499 21.4999 12.1763 21.4999 13.1423C21.4999 13.8038 21.1455 14.2977 20.6735 14.624C20.2325 14.93 19.6902 15.0932 19.228 15.1849C18.636 15.3001 18.0302 15.3486 17.4248 15.3292H17.4166V15.3277Z" fill="#FFBB00"/>
<path fill-rule="evenodd" clip-rule="evenodd" d="M30.8333 29.5278V18.8334H21.0833V31.6667H28.5833C29.18 31.6667 29.7523 31.4414 30.1742 31.0402C30.5962 30.6391 30.8333 30.0951 30.8333 29.5278ZM19.5833 31.6667H12.0833C11.4865 31.6667 10.9142 31.4414 10.4923 31.0402C10.0703 30.6391 9.83325 30.0951 9.83325 29.5278V18.8334H19.5833V31.6667Z" fill="#B9D4F3"/>
<path d="M8.66663 14.5556C8.66663 14.143 8.82027 13.7473 9.09376 13.4556C9.36725 13.1639 9.73819 13 10.125 13H30.5416C30.9284 13 31.2993 13.1639 31.5728 13.4556C31.8463 13.7473 32 14.143 32 14.5556V16.1111C32 16.5237 31.8463 16.9193 31.5728 17.2111C31.2993 17.5028 30.9284 17.6667 30.5416 17.6667H10.125C9.73819 17.6667 9.36725 17.5028 9.09376 17.2111C8.82027 16.9193 8.66663 16.5237 8.66663 16.1111V14.5556Z" fill="#166ED8"/>
</svg>
