<svg width="24" height="24" viewBox="0 0 24 24" fill="none" xmlns="http://www.w3.org/2000/svg">
<path fill-rule="evenodd" clip-rule="evenodd" d="M11.5643 3.18885C11.6215 3.12899 11.6894 3.08149 11.7641 3.04909C11.8389 3.01668 11.9191 3 12 3C12.0809 3 12.1611 3.01668 12.2359 3.04909C12.3106 3.08149 12.3785 3.12899 12.4357 3.18885L19.8203 10.9026C19.8774 10.9625 19.9227 11.0334 19.9535 11.1115C19.9843 11.1896 20.0001 11.2733 20 11.3578V20.3572C20 20.5277 19.9352 20.6912 19.8198 20.8117C19.7044 20.9323 19.5478 21 19.3846 21H13.8462C13.6829 21 13.5264 20.9323 13.411 20.8117C13.2956 20.6912 13.2308 20.5277 13.2308 20.3572V15.2147H10.7692V20.3572C10.7692 20.5277 10.7044 20.6912 10.589 20.8117C10.4736 20.9323 10.3171 21 10.1538 21H4.61539C4.45218 21 4.29565 20.9323 4.18024 20.8117C4.06484 20.6912 4 20.5277 4 20.3572V11.3578C3.99986 11.2733 4.01565 11.1896 4.04649 11.1115C4.07732 11.0334 4.12258 10.9625 4.17969 10.9026L11.5643 3.18885ZM5.23077 11.6239V19.7144H9.53846V14.5718C9.53846 14.4014 9.6033 14.2379 9.7187 14.1173C9.83411 13.9967 9.99064 13.929 10.1538 13.929H13.8462C14.0094 13.929 14.1659 13.9967 14.2813 14.1173C14.3967 14.2379 14.4615 14.4014 14.4615 14.5718V19.7144H18.7692V11.6239L12 4.55291L5.23077 11.6239Z" fill="#5E6674"/>
<path fill-rule="evenodd" clip-rule="evenodd" d="M19.5 5.75V11L16.5 8V5.75C16.5 5.55109 16.579 5.36032 16.7197 5.21967C16.8603 5.07902 17.0511 5 17.25 5H18.75C18.9489 5 19.1397 5.07902 19.2803 5.21967C19.421 5.36032 19.5 5.55109 19.5 5.75Z" fill="#5E6674"/>
</svg>

