<svg width="24" height="24" viewBox="0 0 24 24" fill="none" xmlns="http://www.w3.org/2000/svg">
<path fill-rule="evenodd" clip-rule="evenodd" d="M14 4.2488C13.5226 4.2488 13.0648 4.44615 12.7272 4.79744C12.3897 5.14873 12.2 5.62519 12.2 6.12199C12.2 6.24437 12.2396 6.3218 12.344 6.40547C12.4676 6.50662 12.6704 6.59279 12.932 6.65523C13.2671 6.72954 13.6097 6.76016 13.952 6.74639H13.97L14 6.74514L14.03 6.74764H14.0468C14.1484 6.75245 14.2501 6.75204 14.3516 6.74639C14.5556 6.7389 14.816 6.71392 15.0692 6.65523C15.3296 6.59529 15.5324 6.50787 15.6572 6.40672C15.7604 6.3243 15.8 6.24437 15.8 6.12324C15.8002 5.87714 15.7537 5.63343 15.6633 5.40602C15.573 5.17861 15.4404 4.97196 15.2732 4.79788C15.1061 4.62381 14.9076 4.48572 14.6891 4.3915C14.4707 4.29729 14.2365 4.2488 14 4.2488ZM14 7.99519H13.9928C13.8625 8.00145 13.732 8.00145 13.6016 7.99519C13.288 7.9835 12.976 7.94296 12.6692 7.87405C12.3296 7.79538 11.9324 7.65551 11.6073 7.39327C11.417 7.24605 11.2629 7.05418 11.1574 6.83328C11.0519 6.61237 10.998 6.36867 11.0001 6.12199C11.0001 5.29399 11.3161 4.4999 11.8787 3.91441C12.4413 3.32892 13.2044 3 14 3C14.7957 3 15.5587 3.32892 16.1213 3.91441C16.6839 4.4999 17 5.29399 17 6.12199C17 6.68895 16.7396 7.11229 16.3928 7.39202C16.0688 7.65426 15.6704 7.79413 15.3308 7.8728C14.8959 7.97152 14.4509 8.01305 14.006 7.99644H14V7.99519Z" fill="#5E6674"/>
<path fill-rule="evenodd" clip-rule="evenodd" d="M9.71429 4.125C9.25963 4.125 8.82359 4.30279 8.5021 4.61926C8.18061 4.93572 8 5.36495 8 5.8125C8 5.92275 8.03771 5.9925 8.13714 6.06787C8.25486 6.159 8.448 6.23662 8.69714 6.29288C9.01624 6.35982 9.34256 6.38741 9.66857 6.375H9.68571L9.71429 6.37388L9.74286 6.37612H9.75886L9.81943 6.37725C10.126 6.37999 10.432 6.35134 10.7326 6.29175C10.9806 6.23775 11.1737 6.159 11.2926 6.06787C11.3909 5.99362 11.4286 5.92162 11.4286 5.8125C11.4286 5.36495 11.248 4.93572 10.9265 4.61926C10.605 4.30279 10.1689 4.125 9.71429 4.125ZM9.71429 7.5H9.70743C9.5833 7.50564 9.45898 7.50564 9.33486 7.5C9.03617 7.48947 8.73901 7.45295 8.44686 7.39088C8.12343 7.32 7.74514 7.194 7.43543 6.95775C7.25428 6.82513 7.10749 6.65228 7.007 6.45328C6.90651 6.25427 6.85517 6.03472 6.85714 5.8125C6.85714 5.06658 7.15816 4.35121 7.69398 3.82376C8.2298 3.29632 8.95652 3 9.71429 3C10.472 3 11.1988 3.29632 11.7346 3.82376C12.2704 4.35121 12.5714 5.06658 12.5714 5.8125C12.5714 6.32325 12.3234 6.70462 11.9931 6.95662C11.6846 7.19287 11.3051 7.31887 10.9817 7.38975C10.5679 7.47857 10.1444 7.51599 9.72114 7.50112H9.71429V7.5ZM20 19.3125V10.875H12.5714V21H18.2857C18.7404 21 19.1764 20.8222 19.4979 20.5057C19.8194 20.1893 20 19.7601 20 19.3125ZM11.4286 21H5.71429C5.25963 21 4.82359 20.8222 4.5021 20.5057C4.18061 20.1893 4 19.7601 4 19.3125V10.875H11.4286V21Z" fill="#5E6674"/>
<path d="M3 7.33333C3 6.97971 3.11853 6.64057 3.3295 6.39052C3.54048 6.14048 3.82663 6 4.125 6H19.875C20.1734 6 20.4595 6.14048 20.6705 6.39052C20.8815 6.64057 21 6.97971 21 7.33333V8.66667C21 9.02029 20.8815 9.35943 20.6705 9.60948C20.4595 9.85952 20.1734 10 19.875 10H4.125C3.82663 10 3.54048 9.85952 3.3295 9.60948C3.11853 9.35943 3 9.02029 3 8.66667V7.33333Z" fill="#5E6674"/>
</svg>
