<svg width="24" height="24" viewBox="0 0 24 24" fill="none" xmlns="http://www.w3.org/2000/svg">
<path fill-rule="evenodd" clip-rule="evenodd" d="M18.75 6.375H5.25C4.95163 6.375 4.66548 6.49353 4.4545 6.7045C4.24353 6.91548 4.125 7.20163 4.125 7.5V16.5C4.125 16.7984 4.24353 17.0845 4.4545 17.2955C4.66548 17.5065 4.95163 17.625 5.25 17.625H18.75C19.0484 17.625 19.3345 17.5065 19.5455 17.2955C19.7565 17.0845 19.875 16.7984 19.875 16.5V7.5C19.875 7.20163 19.7565 6.91548 19.5455 6.7045C19.3345 6.49353 19.0484 6.375 18.75 6.375ZM5.25 5.25C4.65326 5.25 4.08097 5.48705 3.65901 5.90901C3.23705 6.33097 3 6.90326 3 7.5L3 16.5C3 17.0967 3.23705 17.669 3.65901 18.091C4.08097 18.5129 4.65326 18.75 5.25 18.75H18.75C19.3467 18.75 19.919 18.5129 20.341 18.091C20.7629 17.669 21 17.0967 21 16.5V7.5C21 6.90326 20.7629 6.33097 20.341 5.90901C19.919 5.48705 19.3467 5.25 18.75 5.25H5.25Z" fill="#A1AEB7"/>
<path fill-rule="evenodd" clip-rule="evenodd" d="M3.07989 7.77339C3.11785 7.71 3.16793 7.65471 3.22726 7.61068C3.28659 7.56665 3.35401 7.53474 3.42568 7.51677C3.49735 7.4988 3.57185 7.49512 3.64494 7.50595C3.71803 7.51679 3.78827 7.54191 3.85164 7.57989L12 12.4691L20.1484 7.57989C20.2118 7.54192 20.282 7.51681 20.3551 7.50599C20.4282 7.49516 20.5027 7.49884 20.5743 7.51681C20.646 7.53478 20.7134 7.56668 20.7728 7.61071C20.8321 7.65473 20.8822 7.71001 20.9201 7.77339C20.9581 7.83677 20.9832 7.90701 20.994 7.98009C21.0049 8.05318 21.0012 8.12768 20.9832 8.19934C20.9653 8.27101 20.9334 8.33843 20.8893 8.39776C20.8453 8.45709 20.79 8.50717 20.7266 8.54514L12 13.7809L3.27339 8.54627C3.21 8.50831 3.15471 8.45823 3.11068 8.3989C3.06665 8.33957 3.03474 8.27214 3.01677 8.20048C2.9988 8.12881 2.99512 8.0543 3.00595 7.98122C3.01679 7.90813 3.04191 7.83789 3.07989 7.77452V7.77339Z" fill="#A1AEB7"/>
<path d="M10.596 13.0485L11.082 12.765L10.515 11.793L10.029 12.0765L10.596 13.0485ZM3.84599 16.986L10.596 13.0485L10.029 12.0765L3.27899 16.014L3.84599 16.986ZM13.404 13.0485L12.918 12.765L13.485 11.793L13.971 12.0765L13.404 13.0485ZM20.154 16.986L13.404 13.0485L13.971 12.0765L20.721 16.014L20.154 16.986Z" fill="#A1AEB7"/>
</svg>
