<svg width="24" height="24" viewBox="0 0 24 24" fill="none" xmlns="http://www.w3.org/2000/svg">
<path d="M18.0289 15.6427C19.9425 13.935 21 12 21 12C21 12 17.625 5.8125 12 5.8125C10.9195 5.81622 9.85131 6.04135 8.86125 6.474L9.7275 7.34137C10.4559 7.07605 11.2248 6.93939 12 6.9375C14.385 6.9375 16.3639 8.2515 17.814 9.70162C18.5119 10.4033 19.1375 11.1733 19.6815 12C19.6162 12.0979 19.5442 12.2059 19.4621 12.324C19.0852 12.864 18.5284 13.584 17.814 14.2984C17.6284 14.484 17.4349 14.6674 17.2324 14.8451L18.0289 15.6427Z" fill="#A1AEB7"/>
<path d="M15.7091 13.323C15.9602 12.6209 16.0067 11.8618 15.8432 11.1343C15.6797 10.4067 15.313 9.7405 14.7857 9.2132C14.2584 8.68591 13.5922 8.31919 12.8647 8.15572C12.1371 7.99224 11.3781 8.03873 10.6759 8.28978L11.6018 9.21566C12.0341 9.15377 12.4749 9.19343 12.8893 9.33149C13.3036 9.46955 13.6802 9.70221 13.989 10.011C14.2978 10.3199 14.5305 10.6964 14.6685 11.1108C14.8066 11.5251 14.8463 11.9659 14.7844 12.3983L15.7091 13.323ZM12.3983 14.7844L13.323 15.7092C12.6208 15.9602 11.8618 16.0067 11.1342 15.8432C10.4067 15.6797 9.74047 15.313 9.21317 14.7857C8.68588 14.2584 8.31916 13.5923 8.15569 12.8647C7.99221 12.1371 8.0387 11.3781 8.28975 10.6759L9.21563 11.6018C9.15374 12.0341 9.1934 12.475 9.33146 12.8893C9.46952 13.3037 9.70218 13.6802 10.011 13.989C10.3198 14.2979 10.6964 14.5305 11.1107 14.6686C11.5251 14.8066 11.9659 14.8463 12.3983 14.7844Z" fill="#A1AEB7"/>
<path d="M6.76875 9.1538C6.56625 9.3338 6.37162 9.51605 6.186 9.70167C5.4881 10.4033 4.86246 11.1733 4.3185 12L4.53787 12.324C4.91475 12.864 5.47163 13.5841 6.186 14.2984C7.63613 15.7485 9.61613 17.0625 12 17.0625C12.8055 17.0625 13.5638 16.9129 14.2725 16.6575L15.1388 17.526C14.1487 17.9587 13.0805 18.1838 12 18.1875C6.375 18.1875 3 12 3 12C3 12 4.05638 10.0639 5.97113 8.3573L6.76762 9.15492L6.76875 9.1538Z" fill="#A1AEB7"/>
<path fill-rule="evenodd" clip-rule="evenodd" d="M18.3518 19.1483L4.85175 5.64831L5.64825 4.85181L19.1483 18.3518L18.3518 19.1483Z" fill="#A1AEB7"/>
</svg>
