<svg width="24" height="24" viewBox="0 0 24 24" fill="none" xmlns="http://www.w3.org/2000/svg">
<path fill-rule="evenodd" clip-rule="evenodd" d="M22 12C22 14.6522 20.9464 17.1957 19.0711 19.0711C17.1957 20.9464 14.6522 22 12 22C9.34784 22 6.8043 20.9464 4.92893 19.0711C3.05357 17.1957 2 14.6522 2 12C2 9.34784 3.05357 6.8043 4.92893 4.92893C6.8043 3.05357 9.34784 2 12 2C14.6522 2 17.1957 3.05357 19.0711 4.92893C20.9464 6.8043 22 9.34784 22 12ZM10.2125 9.54125H8.5625C8.525 7.18375 10.35 6.375 12.0075 6.375C13.7537 6.375 15.3488 7.2875 15.3488 9.175C15.3488 10.525 14.555 11.1675 13.7938 11.7463C12.8725 12.445 12.5312 12.7063 12.5312 13.6038V14.0475H10.8962L10.8875 13.4688C10.84 12.31 11.5062 11.5963 12.3475 10.985C13.085 10.43 13.5538 10.065 13.5538 9.27125C13.5538 8.24 12.7688 7.81125 11.9113 7.81125C10.785 7.81125 10.2137 8.565 10.2137 9.54125H10.2125ZM11.7762 17.595C11.0463 17.595 10.515 17.1025 10.515 16.4362C10.515 15.7463 11.0463 15.2613 11.7775 15.2613C12.5387 15.2613 13.0625 15.7463 13.0625 16.4362C13.0625 17.1025 12.5375 17.595 11.7762 17.595Z" fill="#5E6674"/>
</svg>
