<svg width="24" height="24" viewBox="0 0 24 24" fill="none" xmlns="http://www.w3.org/2000/svg">
<path d="M16.1011 3V4.39969H18.5946L16.2327 6.78336C15.3884 6.14587 14.3596 5.80048 13.3017 5.79938C11.993 5.79938 10.7711 6.31726 9.84588 7.24316C9.38856 7.69496 9.02548 8.23306 8.7777 8.82625C8.52991 9.41944 8.40235 10.0559 8.40242 10.6988C8.40248 11.3416 8.53017 11.9781 8.77807 12.5712C9.02598 13.1644 9.38917 13.7024 9.84658 14.1541C10.4554 14.763 11.1805 15.2004 11.9895 15.4222C12.0693 15.3614 12.1589 15.2977 12.2303 15.2263C12.5236 14.9279 12.7344 14.5585 12.8419 14.1541C12.08 14.0601 11.3716 13.7134 10.8299 13.1694C10.1692 12.5095 9.80249 11.6333 9.80249 10.6983C9.80249 9.7633 10.1699 8.88849 10.8313 8.22784C11.4905 7.56509 12.3667 7.19907 13.3017 7.19907C14.2367 7.19907 15.1122 7.56649 15.7722 8.22784C16.0987 8.55097 16.3578 8.93576 16.5344 9.35985C16.711 9.78394 16.8016 10.2389 16.8009 10.6983C16.8009 11.3037 16.6295 11.867 16.3418 12.3821C16.409 12.7432 16.451 13.1226 16.451 13.4977C16.451 13.8462 16.4216 14.1905 16.3635 14.5264C16.5035 14.4124 16.6281 14.2829 16.7575 14.1541C17.6827 13.2275 18.2006 12.007 18.2006 10.6983C18.2006 9.62753 17.8479 8.60995 17.2166 7.76734L19.6003 5.40607V7.89891H21V3H16.1011ZM11.8145 8.77372C11.7348 8.8346 11.6452 8.89829 11.5738 8.96967C11.2715 9.27341 11.0741 9.64152 10.9621 10.0425C11.725 10.1405 12.4213 10.4736 12.9742 11.0265C13.6355 11.6865 14.003 12.5627 14.003 13.497C14.003 14.4313 13.6355 15.3068 12.9742 15.9674C12.3135 16.6309 11.4373 16.9969 10.5023 16.9969C9.56734 16.9969 8.69184 16.6295 8.03188 15.9681C7.70509 15.6452 7.44583 15.2604 7.26921 14.8363C7.09258 14.4122 7.00213 13.9571 7.00311 13.4977C7.00311 12.8923 7.17457 12.3289 7.46221 11.8138C7.39194 11.4461 7.3554 11.0727 7.35303 10.6983C7.35303 10.3498 7.38243 10.0054 7.44051 9.66952C7.30055 9.78359 7.17667 9.91306 7.0465 10.0425C6.12271 10.967 5.60342 12.189 5.60342 13.4977C5.60342 14.5684 5.95614 15.586 6.5874 16.4286L5.40747 17.6093L4.00778 16.2096L3 17.1935L4.39969 18.5932L3 19.9929L4.00778 21.0007L5.40747 19.601L6.80715 21.0007L7.79044 19.9929L6.39075 18.5932L7.57208 17.4133C8.41551 18.0518 9.44451 18.3971 10.5023 18.3966C11.811 18.3966 13.033 17.8787 13.9582 16.9528C14.8834 16.0283 15.4012 14.8064 15.4012 13.4977C15.4012 12.189 14.8834 10.9684 13.9575 10.0418C13.3486 9.43297 12.6236 8.99557 11.8145 8.77372Z" fill="#A1AEB7"/>
</svg>
