<svg width="24" height="24" viewBox="0 0 24 24" fill="none" xmlns="http://www.w3.org/2000/svg">
<path fill-rule="evenodd" clip-rule="evenodd" d="M12.6439 3.26843C12.4296 3.25268 12.2149 3.2448 12 3.24478V2C12.2457 2.00012 12.4914 2.00925 12.7364 2.02739L12.6439 3.26843ZM15.1495 3.82859C14.7487 3.67461 14.3371 3.55021 13.918 3.4564L14.1918 2.24149C14.6707 2.34854 15.142 2.49044 15.5996 2.6672L15.1495 3.82859ZM16.8625 4.71238C16.6837 4.59369 16.5006 4.48158 16.3136 4.37629L16.93 3.29333C17.3575 3.53449 17.7666 3.80658 18.154 4.10742L17.3851 5.08955C17.2156 4.95789 17.0413 4.8325 16.8625 4.71363V4.71238ZM19.1555 6.94054C18.9082 6.59073 18.6353 6.25955 18.3391 5.9497L19.2443 5.0908C19.5819 5.44556 19.8945 5.82522 20.1783 6.22355L19.1555 6.94054ZM20.0858 8.62349C20.0037 8.42614 19.9145 8.23183 19.8182 8.04093L20.9347 7.48078C21.1555 7.9178 21.3436 8.37048 21.4974 8.8351L20.3096 9.22472C20.2424 9.02165 20.1677 8.82111 20.0858 8.62349ZM20.7484 11.7442C20.7383 11.3164 20.6965 10.8899 20.6234 10.4683L21.855 10.2566C21.9387 10.7371 21.9875 11.2251 22 11.713L20.7497 11.7442H20.7484ZM20.5846 13.6586C20.6259 13.447 20.6597 13.2367 20.6859 13.0238L21.9275 13.1769C21.8674 13.6626 21.7713 14.1431 21.6399 14.6146L20.4346 14.2823C20.4921 14.0769 20.5421 13.869 20.5846 13.6586ZM19.3943 16.62C19.6244 16.259 19.827 15.8806 20.002 15.4897L21.1448 15.9938C20.9447 16.442 20.7134 16.8727 20.4509 17.2859L19.3943 16.62ZM18.189 18.1199C18.3416 17.9681 18.4879 17.8112 18.6267 17.6494L19.5744 18.4623C19.4139 18.6475 19.2467 18.8269 19.073 19L18.189 18.1199Z" fill="white"/>
<path fill-rule="evenodd" clip-rule="evenodd" d="M11.9599 3.24984C10.5273 3.24995 9.11687 3.60486 7.8535 4.28314C6.59013 4.96142 5.51281 5.94213 4.71696 7.13842C3.92112 8.3347 3.43132 9.70964 3.29094 11.1414C3.15056 12.5732 3.36394 14.0177 3.91217 15.3469C4.46041 16.6761 5.32658 17.849 6.43396 18.7617C7.54135 19.6744 8.85577 20.2988 10.2608 20.5795C11.6658 20.8602 13.1181 20.7886 14.489 20.371C15.8599 19.9534 17.1071 19.2028 18.1201 18.1855L19 19.0691C17.8423 20.2324 16.4167 21.091 14.8496 21.5688C13.2826 22.0466 11.6223 22.1288 10.016 21.8081C8.40977 21.4875 6.90703 20.7739 5.64099 19.7306C4.37496 18.6872 3.3847 17.3464 2.75797 15.8269C2.13124 14.3073 1.88739 12.656 2.04801 11.0192C2.20863 9.3824 2.76878 7.81065 3.67882 6.44322C4.58885 5.07579 5.82068 3.95489 7.26516 3.17986C8.70964 2.40482 10.3222 1.99956 11.9599 2V3.24984Z" fill="white"/>
<path fill-rule="evenodd" clip-rule="evenodd" d="M11.5568 6C11.7045 6 11.8461 6.06202 11.9506 6.17241C12.055 6.2828 12.1137 6.43252 12.1137 6.58864V12.7223L15.7308 14.9073C15.8553 14.9867 15.9455 15.1144 15.9821 15.2632C16.0187 15.412 15.9988 15.57 15.9266 15.7034C15.8545 15.8369 15.7358 15.9352 15.596 15.9774C15.4562 16.0196 15.3063 16.0023 15.1784 15.9292L11.2806 13.5746C11.1954 13.5232 11.1246 13.4488 11.0753 13.3591C11.026 13.2694 11 13.1675 11 13.0637V6.58864C11 6.43252 11.0587 6.2828 11.1631 6.17241C11.2675 6.06202 11.4091 6 11.5568 6Z" fill="white"/>
</svg>
