<svg width="48" height="48" viewBox="0 0 48 48" fill="none" xmlns="http://www.w3.org/2000/svg">
<path d="M34.5 26C34.5 26.663 34.2366 27.2989 33.7678 27.7678C33.2989 28.2366 32.663 28.5 32 28.5C31.337 28.5 30.7011 28.2366 30.2322 27.7678C29.7634 27.2989 29.5 26.663 29.5 26C29.5 25.337 29.7634 24.7011 30.2322 24.2322C30.7011 23.7634 31.337 23.5 32 23.5C32.663 23.5 33.2989 23.7634 33.7678 24.2322C34.2366 24.7011 34.5 25.337 34.5 26ZM44 24C44 35 35 44 24 44H4V24C4 13 13 4 24 4C35 4 44 13 44 24ZM14 36C16.82 38.46 20 40 24 40C32.82 40 40 32.82 40 24C40 22.42 39.76 20.9 39.34 19.48C37.9 19.82 36.4 20 34.84 20C30.84 20 27.14 18.8 24 16.78C24 16.78 21.08 27.52 16.06 26C14.74 25.6 14 26.62 14 28" fill="white"/>
</svg>
