<svg width="24" height="24" viewBox="0 0 24 24" fill="none" xmlns="http://www.w3.org/2000/svg">
<path fill-rule="evenodd" clip-rule="evenodd" d="M16.4545 11.5455H7.54545C7.20791 11.5455 6.88418 11.6795 6.6455 11.9182C6.40682 12.1569 6.27273 12.4806 6.27273 12.8182V19.1818C6.27273 19.5194 6.40682 19.8431 6.6455 20.0818C6.88418 20.3205 7.20791 20.4545 7.54545 20.4545H16.4545C16.7921 20.4545 17.1158 20.3205 17.3545 20.0818C17.5932 19.8431 17.7273 19.5194 17.7273 19.1818V12.8182C17.7273 12.4806 17.5932 12.1569 17.3545 11.9182C17.1158 11.6795 16.7921 11.5455 16.4545 11.5455ZM7.54545 10.2727C6.87036 10.2727 6.22291 10.5409 5.74555 11.0183C5.26818 11.4956 5 12.1431 5 12.8182V19.1818C5 19.8569 5.26818 20.5044 5.74555 20.9817C6.22291 21.4591 6.87036 21.7273 7.54545 21.7273H16.4545C17.1296 21.7273 17.7771 21.4591 18.2545 20.9817C18.7318 20.5044 19 19.8569 19 19.1818V12.8182C19 12.1431 18.7318 11.4956 18.2545 11.0183C17.7771 10.5409 17.1296 10.2727 16.4545 10.2727H7.54545ZM7.54545 6.45455C7.54545 5.27313 8.01477 4.1401 8.85016 3.30471C9.68555 2.46932 10.8186 2 12 2C13.1814 2 14.3144 2.46932 15.1498 3.30471C15.9852 4.1401 16.4545 5.27313 16.4545 6.45455V10.2727H15.1818V6.45455C15.1818 5.61067 14.8466 4.80137 14.2499 4.20466C13.6532 3.60795 12.8439 3.27273 12 3.27273C11.1561 3.27273 10.3468 3.60795 9.75011 4.20466C9.15341 4.80137 8.81818 5.61067 8.81818 6.45455V10.2727H7.54545V6.45455Z" fill="#A1AEB7"/>
</svg>
