<svg width="24" height="24" viewBox="0 0 24 24" fill="none" xmlns="http://www.w3.org/2000/svg">
<path fill-rule="evenodd" clip-rule="evenodd" d="M18.6666 20C18.6666 20 20 20 20 18.6667C20 17.3333 18.6666 13.3333 12 13.3333C5.3333 13.3333 3.99997 17.3333 3.99997 18.6667C3.99997 20 5.3333 20 5.3333 20H18.6666ZM5.33997 18.7413V18.7387V18.7413ZM5.36264 18.6667H18.6373C18.6435 18.6659 18.6498 18.665 18.656 18.664L18.6666 18.6613C18.6653 18.3333 18.4613 17.3467 17.5573 16.4427C16.688 15.5733 15.052 14.6667 12 14.6667C8.94664 14.6667 7.31197 15.5733 6.44264 16.4427C5.53864 17.3467 5.33597 18.3333 5.3333 18.6613C5.34306 18.6632 5.35284 18.665 5.36264 18.6667V18.6667ZM18.6613 18.7413V18.7387V18.7413ZM12 10.6667C12.7072 10.6667 13.3855 10.3857 13.8856 9.88562C14.3857 9.38552 14.6666 8.70724 14.6666 8C14.6666 7.29276 14.3857 6.61448 13.8856 6.11438C13.3855 5.61428 12.7072 5.33333 12 5.33333C11.2927 5.33333 10.6144 5.61428 10.1144 6.11438C9.61425 6.61448 9.3333 7.29276 9.3333 8C9.3333 8.70724 9.61425 9.38552 10.1144 9.88562C10.6144 10.3857 11.2927 10.6667 12 10.6667V10.6667ZM16 8C16 9.06087 15.5785 10.0783 14.8284 10.8284C14.0783 11.5786 13.0608 12 12 12C10.9391 12 9.92169 11.5786 9.17154 10.8284C8.4214 10.0783 7.99997 9.06087 7.99997 8C7.99997 6.93913 8.4214 5.92172 9.17154 5.17157C9.92169 4.42143 10.9391 4 12 4C13.0608 4 14.0783 4.42143 14.8284 5.17157C15.5785 5.92172 16 6.93913 16 8V8Z" fill="#A1AEB7"/>
</svg>
