<svg width="24" height="24" viewBox="0 0 24 24" fill="none" xmlns="http://www.w3.org/2000/svg">
<path fill-rule="evenodd" clip-rule="evenodd" d="M18.6667 20C18.6667 20 20 20 20 18.6667C20 17.3333 18.6667 13.3333 12 13.3333C5.33333 13.3333 4 17.3333 4 18.6667C4 20 5.33333 20 5.33333 20H18.6667ZM5.34 18.7413V18.7387V18.7413ZM5.36267 18.6667H18.6373C18.6436 18.6659 18.6498 18.665 18.656 18.664L18.6667 18.6613C18.6653 18.3333 18.4613 17.3467 17.5573 16.4427C16.688 15.5733 15.052 14.6667 12 14.6667C8.94667 14.6667 7.312 15.5733 6.44267 16.4427C5.53867 17.3467 5.336 18.3333 5.33333 18.6613C5.34309 18.6632 5.35287 18.665 5.36267 18.6667ZM18.6613 18.7413V18.7387V18.7413ZM12 10.6667C12.7072 10.6667 13.3855 10.3857 13.8856 9.88562C14.3857 9.38552 14.6667 8.70724 14.6667 8C14.6667 7.29276 14.3857 6.61448 13.8856 6.11438C13.3855 5.61428 12.7072 5.33333 12 5.33333C11.2928 5.33333 10.6145 5.61428 10.1144 6.11438C9.61428 6.61448 9.33333 7.29276 9.33333 8C9.33333 8.70724 9.61428 9.38552 10.1144 9.88562C10.6145 10.3857 11.2928 10.6667 12 10.6667ZM16 8C16 9.06087 15.5786 10.0783 14.8284 10.8284C14.0783 11.5786 13.0609 12 12 12C10.9391 12 9.92172 11.5786 9.17157 10.8284C8.42143 10.0783 8 9.06087 8 8C8 6.93913 8.42143 5.92172 9.17157 5.17157C9.92172 4.42143 10.9391 4 12 4C13.0609 4 14.0783 4.42143 14.8284 5.17157C15.5786 5.92172 16 6.93913 16 8Z" fill="#5E6674"/>
</svg>
