<svg width="24" height="24" viewBox="0 0 24 24" fill="none" xmlns="http://www.w3.org/2000/svg">
<path d="M19 17.318C18.0911 15.7164 16.0902 14 12 14C7.90984 14 5.9102 15.715 5 17.318C5.83862 18.4677 6.90351 19.3959 8.11545 20.0333C9.32739 20.6708 10.6552 21.0012 12 21C13.3448 21.0012 14.6726 20.6708 15.8845 20.0333C17.0965 19.3959 18.1614 18.4677 19 17.318Z" fill="#5E6674"/>
<path fill-rule="evenodd" clip-rule="evenodd" d="M12 13C13.0609 13 14.0783 12.5786 14.8284 11.8284C15.5786 11.0783 16 10.0609 16 9C16 7.93913 15.5786 6.92172 14.8284 6.17157C14.0783 5.42143 13.0609 5 12 5C10.9391 5 9.92172 5.42143 9.17157 6.17157C8.42143 6.92172 8 7.93913 8 9C8 10.0609 8.42143 11.0783 9.17157 11.8284C9.92172 12.5786 10.9391 13 12 13Z" fill="#5E6674"/>
<path fill-rule="evenodd" clip-rule="evenodd" d="M12 3.25C9.67936 3.25 7.45376 4.17187 5.81282 5.81282C4.17187 7.45376 3.25 9.67936 3.25 12C3.25 14.3206 4.17187 16.5462 5.81282 18.1872C7.45376 19.8281 9.67936 20.75 12 20.75C14.3206 20.75 16.5462 19.8281 18.1872 18.1872C19.8281 16.5462 20.75 14.3206 20.75 12C20.75 9.67936 19.8281 7.45376 18.1872 5.81282C16.5462 4.17187 14.3206 3.25 12 3.25ZM2 12C2 9.34784 3.05357 6.8043 4.92893 4.92893C6.8043 3.05357 9.34784 2 12 2C14.6522 2 17.1957 3.05357 19.0711 4.92893C20.9464 6.8043 22 9.34784 22 12C22 14.6522 20.9464 17.1957 19.0711 19.0711C17.1957 20.9464 14.6522 22 12 22C9.34784 22 6.8043 20.9464 4.92893 19.0711C3.05357 17.1957 2 14.6522 2 12Z" fill="#5E6674"/>
</svg>
