<svg width="24" height="24" viewBox="0 0 24 24" fill="none" xmlns="http://www.w3.org/2000/svg">
<path fill-rule="evenodd" clip-rule="evenodd" d="M3.28571 20C3.28571 20 2 20 2 18.75C2 17.5 3.28571 13.75 9.71429 13.75C16.1429 13.75 17.4286 17.5 17.4286 18.75C17.4286 20 16.1429 20 16.1429 20H3.28571ZM9.71429 12.5C10.7373 12.5 11.7183 12.1049 12.4417 11.4017C13.1651 10.6984 13.5714 9.74456 13.5714 8.75C13.5714 7.75544 13.1651 6.80161 12.4417 6.09835C11.7183 5.39509 10.7373 5 9.71429 5C8.69131 5 7.71023 5.39509 6.98687 6.09835C6.26352 6.80161 5.85714 7.75544 5.85714 8.75C5.85714 9.74456 6.26352 10.6984 6.98687 11.4017C7.71023 12.1049 8.69131 12.5 9.71429 12.5ZM19.3571 8.75C19.5276 8.75 19.6912 8.81585 19.8117 8.93306C19.9323 9.05027 20 9.20924 20 9.375V11.875C20 12.0408 19.9323 12.1997 19.8117 12.3169C19.6912 12.4342 19.5276 12.5 19.3571 12.5H16.7857C16.6152 12.5 16.4517 12.4342 16.3311 12.3169C16.2106 12.1997 16.1429 12.0408 16.1429 11.875C16.1429 11.7092 16.2106 11.5503 16.3311 11.4331C16.4517 11.3158 16.6152 11.25 16.7857 11.25H18.7143V9.375C18.7143 9.20924 18.782 9.05027 18.9026 8.93306C19.0231 8.81585 19.1866 8.75 19.3571 8.75Z" fill="#5E6674"/>
<path fill-rule="evenodd" clip-rule="evenodd" d="M18.7 11.8669C18.7 11.6901 18.7702 11.5205 18.8952 11.3955C19.0202 11.2704 19.1898 11.2002 19.3666 11.2002H22.0333C22.2101 11.2002 22.3797 11.2704 22.5047 11.3955C22.6297 11.5205 22.7 11.6901 22.7 11.8669C22.7 12.0437 22.6297 12.2132 22.5047 12.3383C22.3797 12.4633 22.2101 12.5335 22.0333 12.5335H20.0333V14.5335C20.0333 14.7103 19.963 14.8799 19.838 15.0049C19.713 15.13 19.5434 15.2002 19.3666 15.2002C19.1898 15.2002 19.0202 15.13 18.8952 15.0049C18.7702 14.8799 18.7 14.7103 18.7 14.5335V11.8669Z" fill="#5E6674"/>
</svg>
