<svg width="40" height="40" viewBox="0 0 40 40" fill="none" xmlns="http://www.w3.org/2000/svg">
<path d="M14.3431 0.808122C18.0953 0.272095 21.9047 0.272095 25.6569 0.808122L30.0754 1.43934C34.4752 2.06788 37.9321 5.52484 38.5607 9.92462L39.1919 14.3431C39.7279 18.0953 39.7279 21.9047 39.1919 25.6569L38.5607 30.0754C37.9321 34.4752 34.4752 37.9321 30.0754 38.5607L25.6569 39.1919C21.9047 39.7279 18.0953 39.7279 14.3431 39.1919L9.92462 38.5607C5.52484 37.9321 2.06788 34.4752 1.43934 30.0754L0.808122 25.6569C0.272095 21.9047 0.272095 18.0953 0.808122 14.3431L1.43934 9.92462C2.06788 5.52484 5.52484 2.06788 9.92462 1.43934L14.3431 0.808122Z" fill="#EDF5FD"/>
<path fill-rule="evenodd" clip-rule="evenodd" d="M27 20.375L25.0417 20.375C24.8649 20.375 24.6953 20.3048 24.5703 20.1797C24.4452 20.0547 24.375 19.8851 24.375 19.7083C24.375 19.5315 24.4452 19.362 24.5703 19.2369C24.6953 19.1119 24.8649 19.0417 25.0417 19.0417L27.0417 19.0417L27.0417 17.0417C27.0417 16.8649 27.1119 16.6953 27.2369 16.5703C27.362 16.4452 27.5315 16.375 27.7083 16.375C27.8851 16.375 28.0547 16.4452 28.1797 16.5703C28.3048 16.6953 28.375 16.8649 28.375 17.0417L28.375 19H30.3333C30.5101 19 30.6797 19.0702 30.8047 19.1953C30.9298 19.3203 31 19.4899 31 19.6667C31 19.8435 30.9298 20.013 30.8047 20.1381C30.6797 20.2631 30.5101 20.3333 30.3333 20.3333H28.3333V22.3333C28.3333 22.5101 28.2631 22.6797 28.1381 22.8047C28.013 22.9298 27.8435 23 27.6667 23C27.4899 23 27.3203 22.9298 27.1953 22.8047C27.0702 22.6797 27 22.5101 27 22.3333V20.375Z" fill="#FFBB00"/>
<circle cx="17" cy="16" r="4" fill="#166ED8"/>
<path d="M24 28.75C24.4142 28.75 24.75 28.4142 24.75 28C24.75 26.378 23.8473 24.8982 22.3857 23.8542C20.9272 22.8124 18.9884 22.25 17 22.25C15.0116 22.25 13.0728 22.8124 11.6143 23.8542C10.1527 24.8982 9.25 26.378 9.25 28C9.25 28.1989 9.32902 28.3897 9.46967 28.5303C9.61032 28.671 9.80109 28.75 10 28.75L17 28.75H24Z" fill="#166ED8" stroke="#166ED8" stroke-width="1.5" stroke-linejoin="round"/>
</svg>
