<svg width="24" height="24" viewBox="0 0 24 24" fill="none" xmlns="http://www.w3.org/2000/svg">
<path fill-rule="evenodd" clip-rule="evenodd" d="M3.01375 18.4408C3.37177 18.7989 3.85736 19 4.36368 19H13.2728C13.7791 19 14.2647 18.7989 14.6227 18.4408C14.9807 18.0828 15.1819 17.5972 15.1819 17.0909V15.1818C15.1819 15.013 15.1148 14.8512 14.9955 14.7318C14.8761 14.6125 14.7143 14.5455 14.5455 14.5455C14.3767 14.5455 14.2149 14.6125 14.0955 14.7318C13.9762 14.8512 13.9091 15.013 13.9091 15.1818V17.0909C13.9091 17.2597 13.8421 17.4215 13.7227 17.5409C13.6034 17.6602 13.4415 17.7273 13.2728 17.7273H4.36368C4.19491 17.7273 4.03304 17.6602 3.9137 17.5409C3.79436 17.4215 3.72732 17.2597 3.72732 17.0909V6.90909C3.72732 6.74032 3.79436 6.57846 3.9137 6.45911C4.03304 6.33977 4.19491 6.27273 4.36368 6.27273H13.2728C13.4415 6.27273 13.6034 6.33977 13.7227 6.45911C13.8421 6.57846 13.9091 6.74032 13.9091 6.90909V8.81818C13.9091 8.98696 13.9762 9.14882 14.0955 9.26816C14.2149 9.3875 14.3767 9.45455 14.5455 9.45455C14.7143 9.45455 14.8761 9.3875 14.9955 9.26816C15.1148 9.14882 15.1819 8.98696 15.1819 8.81818V6.90909C15.1819 6.40277 14.9807 5.91718 14.6227 5.55916C14.2647 5.20114 13.7791 5 13.2728 5H4.36368C3.85736 5 3.37177 5.20114 3.01375 5.55916C2.65573 5.91718 2.45459 6.40277 2.45459 6.90909V17.0909C2.45459 17.5972 2.65573 18.0828 3.01375 18.4408ZM16.6404 16.2687C16.5812 16.2096 16.5341 16.1394 16.5021 16.0621C16.47 15.9848 16.4535 15.9019 16.4535 15.8182C16.4535 15.7345 16.47 15.6516 16.5021 15.5743C16.5341 15.497 16.5812 15.4267 16.6404 15.3676L19.3727 12.6364H8.18187C8.01309 12.6364 7.85123 12.5693 7.73189 12.45C7.61255 12.3306 7.5455 12.1688 7.5455 12C7.5455 11.8312 7.61255 11.6694 7.73189 11.55C7.85123 11.4307 8.01309 11.3636 8.18187 11.3636H19.3727L16.6404 8.63236C16.5209 8.51287 16.4538 8.3508 16.4538 8.18181C16.4538 8.01283 16.5209 7.85076 16.6404 7.73127C16.7599 7.61178 16.922 7.54465 17.091 7.54465C17.2599 7.54465 17.422 7.61178 17.5415 7.73127L21.3597 11.5495C21.419 11.6086 21.466 11.6788 21.4981 11.7561C21.5301 11.8334 21.5466 11.9163 21.5466 12C21.5466 12.0837 21.5301 12.1666 21.4981 12.2439C21.466 12.3212 21.419 12.3914 21.3597 12.4505L17.5415 16.2687C17.4824 16.328 17.4122 16.375 17.3349 16.4071C17.2575 16.4392 17.1747 16.4557 17.091 16.4557C17.0073 16.4557 16.9244 16.4392 16.8471 16.4071C16.7698 16.375 16.6995 16.328 16.6404 16.2687Z" fill="#5E6674"/>
</svg>
