<svg width="41" height="40" viewBox="0 0 41 40" fill="none" xmlns="http://www.w3.org/2000/svg">
<path d="M15.0098 0.808122C18.762 0.272095 22.5713 0.272095 26.3235 0.808122L30.742 1.43934C35.1418 2.06788 38.5987 5.52484 39.2273 9.92462L39.8585 14.3431C40.3945 18.0953 40.3945 21.9047 39.8585 25.6569L39.2273 30.0754C38.5987 34.4752 35.1418 37.9321 30.742 38.5607L26.3235 39.1919C22.5713 39.7279 18.762 39.7279 15.0098 39.1919L10.5912 38.5607C6.19147 37.9321 2.73451 34.4752 2.10597 30.0754L1.47475 25.6569C0.938721 21.9047 0.938721 18.0953 1.47475 14.3431L2.10597 9.92462C2.73451 5.52484 6.19147 2.06788 10.5912 1.43934L15.0098 0.808122Z" fill="#EDF5FD"/>
<path fill-rule="evenodd" clip-rule="evenodd" d="M13.9536 11.029C15.3852 10.3284 17.7339 9.5 20.3043 9.5C22.821 9.5 25.1079 10.294 26.5319 10.9853L26.6124 11.0244C27.0418 11.2367 27.3883 11.4374 27.6321 11.6002L25.4771 14.7504L25.4771 14.7505C30.4452 19.8294 34.2826 30.5 20.3042 30.5C6.32582 30.5 10.06 20.0231 15.0713 14.7504L15.0714 14.7504L12.9303 11.6002C13.0954 11.4922 13.3049 11.3668 13.5546 11.2338C13.6782 11.1673 13.8112 11.0985 13.9536 11.029Z" fill="#166ED8"/>
<path fill-rule="evenodd" clip-rule="evenodd" d="M23.0653 20.39C22.9044 19.935 22.6064 19.541 22.2123 19.2624C21.8182 18.9837 21.3474 18.8341 20.8648 18.8341V18.2507H19.698V18.8341C19.0791 18.8341 18.4856 19.08 18.048 19.5176C17.6104 19.9552 17.3645 20.5488 17.3645 21.1676C17.3645 21.7865 17.6104 22.3801 18.048 22.8177C18.4856 23.2553 19.0791 23.5012 19.698 23.5012V25.8347C19.1905 25.8347 18.7582 25.5109 18.5972 25.057C18.5733 24.9828 18.5348 24.9141 18.4839 24.855C18.4329 24.7959 18.3707 24.7476 18.3008 24.713C18.2309 24.6783 18.1548 24.6581 18.0769 24.6534C17.9991 24.6487 17.921 24.6597 17.8475 24.6857C17.7739 24.7116 17.7064 24.7521 17.6487 24.8047C17.5911 24.8572 17.5446 24.9208 17.5119 24.9917C17.4793 25.0625 17.4612 25.1392 17.4587 25.2172C17.4563 25.2951 17.4695 25.3728 17.4975 25.4456C17.6584 25.9006 17.9565 26.2946 18.3505 26.5732C18.7446 26.8518 19.2154 27.0015 19.698 27.0015V27.5848H20.8648V27.0015C21.4837 27.0015 22.0772 26.7556 22.5148 26.318C22.9525 25.8804 23.1983 25.2868 23.1983 24.6679C23.1983 24.049 22.9525 23.4555 22.5148 23.0179C22.0772 22.5803 21.4837 22.3344 20.8648 22.3344V20.0009C21.1061 20.0008 21.3415 20.0756 21.5385 20.2148C21.7356 20.3541 21.8846 20.551 21.9651 20.7785C22.0166 20.9244 22.1239 21.0439 22.2635 21.1106C22.3327 21.1437 22.4076 21.1628 22.4841 21.1669C22.5606 21.1709 22.6372 21.1599 22.7094 21.1344C22.7817 21.1089 22.8482 21.0694 22.9052 21.0182C22.9622 20.967 23.0085 20.905 23.0415 20.8359C23.0746 20.7668 23.0937 20.6918 23.0978 20.6153C23.1019 20.5388 23.0908 20.4622 23.0653 20.39ZM19.698 20.0009C19.3886 20.0009 19.0918 20.1238 18.873 20.3426C18.6542 20.5614 18.5313 20.8582 18.5313 21.1676C18.5313 21.4771 18.6542 21.7739 18.873 21.9927C19.0918 22.2115 19.3886 22.3344 19.698 22.3344V20.0009ZM20.8648 25.8347C21.1742 25.8347 21.471 25.7118 21.6898 25.493C21.9086 25.2742 22.0316 24.9774 22.0316 24.6679C22.0316 24.3585 21.9086 24.0617 21.6898 23.8429C21.471 23.6241 21.1742 23.5012 20.8648 23.5012V25.8347Z" fill="#FFBB00"/>
<path fill-rule="evenodd" clip-rule="evenodd" d="M15.1069 11.7845C15.5736 11.9234 16.0613 12.0441 16.5561 12.1357C17.8103 12.3667 19.0681 12.4006 20.1415 12.0896C21.3924 11.7252 22.6647 11.4386 23.951 11.2315C22.8776 10.9083 21.6221 10.6667 20.3037 10.6667C18.2939 10.6667 16.4195 11.2274 15.1069 11.7845Z" fill="#B9D4F3"/>
</svg>
