<svg width="24" height="24" viewBox="0 0 24 24" fill="none" xmlns="http://www.w3.org/2000/svg">
<path d="M18 4.5C18 3.11875 15.3132 2 12 2C8.6868 2 6 3.11875 6 4.5C6 5.88125 8.6868 7 12 7C15.3132 7 18 5.88125 18 4.5Z" fill="#5E6674"/>
<path d="M18 7C17.6136 7.28235 17.1624 7.51176 16.6884 7.69765C15.4284 8.19176 13.77 8.47059 12 8.47059C10.23 8.47059 8.5716 8.19176 7.3116 7.69765C6.84585 7.52087 6.40507 7.28642 6 7V9.64706C6 10.9471 8.6868 12 12 12C15.3132 12 18 10.9471 18 9.64706V7Z" fill="#5E6674"/>
<path d="M18 12C17.6136 12.2824 17.1624 12.5118 16.6884 12.6976C15.4284 13.1918 13.77 13.4706 12 13.4706C10.23 13.4706 8.5716 13.1918 7.3116 12.6976C6.84585 12.5209 6.40507 12.2864 6 12V14.6471C6 15.9471 8.6868 17 12 17C15.3132 17 18 15.9471 18 14.6471V12Z" fill="#5E6674"/>
<path d="M18 17C17.6136 17.2824 17.1624 17.5118 16.6884 17.6976C15.4284 18.1918 13.77 18.4706 12 18.4706C10.23 18.4706 8.5716 18.1918 7.3116 17.6976C6.84586 17.5208 6.40509 17.2864 6 17V19.6471C6 20.9471 8.6868 22 12 22C15.3132 22 18 20.9471 18 19.6471V17Z" fill="#5E6674"/>
</svg>
