<svg width="24" height="24" viewBox="0 0 24 24" fill="none" xmlns="http://www.w3.org/2000/svg">
<path fill-rule="evenodd" clip-rule="evenodd" d="M7.71429 17.6C7.71429 17.4143 7.78954 17.2363 7.9235 17.105C8.05745 16.9737 8.23913 16.9 8.42857 16.9H21.2857C21.4752 16.9 21.6568 16.9737 21.7908 17.105C21.9247 17.2363 22 17.4143 22 17.6C22 17.7857 21.9247 17.9637 21.7908 18.095C21.6568 18.2263 21.4752 18.3 21.2857 18.3H8.42857C8.23913 18.3 8.05745 18.2263 7.9235 18.095C7.78954 17.9637 7.71429 17.7857 7.71429 17.6ZM7.71429 12C7.71429 11.8143 7.78954 11.6363 7.9235 11.505C8.05745 11.3737 8.23913 11.3 8.42857 11.3H21.2857C21.4752 11.3 21.6568 11.3737 21.7908 11.505C21.9247 11.6363 22 11.8143 22 12C22 12.1857 21.9247 12.3637 21.7908 12.495C21.6568 12.6262 21.4752 12.7 21.2857 12.7H8.42857C8.23913 12.7 8.05745 12.6262 7.9235 12.495C7.78954 12.3637 7.71429 12.1857 7.71429 12ZM7.71429 6.4C7.71429 6.21435 7.78954 6.0363 7.9235 5.90503C8.05745 5.77375 8.23913 5.7 8.42857 5.7H21.2857C21.4752 5.7 21.6568 5.77375 21.7908 5.90503C21.9247 6.0363 22 6.21435 22 6.4C22 6.58565 21.9247 6.7637 21.7908 6.89497C21.6568 7.02625 21.4752 7.1 21.2857 7.1H8.42857C8.23913 7.1 8.05745 7.02625 7.9235 6.89497C7.78954 6.7637 7.71429 6.58565 7.71429 6.4ZM3.42857 7.8C3.80745 7.8 4.17081 7.6525 4.43872 7.38995C4.70663 7.1274 4.85714 6.7713 4.85714 6.4C4.85714 6.0287 4.70663 5.6726 4.43872 5.41005C4.17081 5.1475 3.80745 5 3.42857 5C3.04969 5 2.68633 5.1475 2.41842 5.41005C2.15051 5.6726 2 6.0287 2 6.4C2 6.7713 2.15051 7.1274 2.41842 7.38995C2.68633 7.6525 3.04969 7.8 3.42857 7.8ZM3.42857 13.4C3.80745 13.4 4.17081 13.2525 4.43872 12.9899C4.70663 12.7274 4.85714 12.3713 4.85714 12C4.85714 11.6287 4.70663 11.2726 4.43872 11.0101C4.17081 10.7475 3.80745 10.6 3.42857 10.6C3.04969 10.6 2.68633 10.7475 2.41842 11.0101C2.15051 11.2726 2 11.6287 2 12C2 12.3713 2.15051 12.7274 2.41842 12.9899C2.68633 13.2525 3.04969 13.4 3.42857 13.4ZM3.42857 19C3.80745 19 4.17081 18.8525 4.43872 18.5899C4.70663 18.3274 4.85714 17.9713 4.85714 17.6C4.85714 17.2287 4.70663 16.8726 4.43872 16.6101C4.17081 16.3475 3.80745 16.2 3.42857 16.2C3.04969 16.2 2.68633 16.3475 2.41842 16.6101C2.15051 16.8726 2 17.2287 2 17.6C2 17.9713 2.15051 18.3274 2.41842 18.5899C2.68633 18.8525 3.04969 19 3.42857 19Z" fill="#166ED8"/>
</svg>
