<svg width="24" height="24" viewBox="0 0 24 24" fill="none" xmlns="http://www.w3.org/2000/svg">
<path fill-rule="evenodd" clip-rule="evenodd" d="M19.7707 3.09437C19.8415 3.14329 19.8993 3.20857 19.9392 3.28462C19.9792 3.36067 20 3.44523 20 3.53106V19.4687C20 19.6096 19.9438 19.7447 19.8438 19.8443C19.7438 19.9439 19.6081 19.9999 19.4667 19.9999H16.2667C16.1252 19.9999 15.9896 19.9439 15.8895 19.8443C15.7895 19.7447 15.7333 19.6096 15.7333 19.4687V17.8749H14.6667V19.4687C14.6667 19.6096 14.6105 19.7447 14.5105 19.8443C14.4104 19.9439 14.2748 19.9999 14.1333 19.9999H4.53333C4.39188 19.9999 4.25623 19.9439 4.15621 19.8443C4.05619 19.7447 4 19.6096 4 19.4687V13.0936C4.00006 12.9679 4.0449 12.8462 4.12654 12.7503C4.20818 12.6544 4.32133 12.5904 4.44587 12.5698L10.4 11.5817V6.71858C10.4 6.61052 10.4331 6.50503 10.4948 6.41619C10.5566 6.32734 10.6441 6.25936 10.7456 6.22133L19.2789 3.03381C19.3596 3.0037 19.4463 2.99349 19.5317 3.00403C19.6172 3.01458 19.6988 3.04557 19.7696 3.09437H19.7707Z" fill="#5E6674"/>
<path fill-rule="evenodd" clip-rule="evenodd" d="M10.3999 19.4688V12.0312H11.4666V19.4688H10.3999Z" fill="#5E6674"/>
<path d="M6 14.4545H7.09091V15.6364H6V14.4545ZM8.18182 14.4545H9.27273V15.6364H8.18182V14.4545ZM6 16.8182H7.09091V18H6V16.8182ZM8.18182 16.8182H9.27273V18H8.18182V16.8182ZM14.7273 7H15.8182V8.18182H14.7273V7ZM16.9091 7H18V8.18182H16.9091V7ZM12.5455 9.36364H13.6364V10.5455H12.5455V9.36364ZM14.7273 9.36364H15.8182V10.5455H14.7273V9.36364ZM16.9091 9.36364H18V10.5455H16.9091V9.36364ZM14.7273 11.7273H15.8182V12.9091H14.7273V11.7273ZM16.9091 11.7273H18V12.9091H16.9091V11.7273ZM12.5455 11.7273H13.6364V12.9091H12.5455V11.7273ZM12.5455 14.0909H13.6364V15.2727H12.5455V14.0909ZM14.7273 14.0909H15.8182V15.2727H14.7273V14.0909ZM16.9091 14.0909H18V15.2727H16.9091V14.0909Z" fill="white"/>
</svg>
