<svg width="24" height="24" viewBox="0 0 24 24" fill="none" xmlns="http://www.w3.org/2000/svg">
<path fill-rule="evenodd" clip-rule="evenodd" d="M6.66667 3H12.2288C12.936 3 13.6143 3.27092 14.1144 3.75315L19.219 8.67542C19.719 9.15765 20 9.81171 20 10.4937V18.4286C20 19.1106 19.719 19.7646 19.219 20.2468C18.7189 20.7291 18.0406 21 17.3333 21H6.66667C5.95942 21 5.28115 20.7291 4.78105 20.2468C4.28095 19.7646 4 19.1106 4 18.4286V5.57143C4 4.88944 4.28095 4.23539 4.78105 3.75315C5.28115 3.27092 5.95942 3 6.66667 3ZM8.19526 16.0454C8.07024 16.166 8 16.3295 8 16.5C8 16.6705 8.07024 16.834 8.19526 16.9546C8.32029 17.0751 8.48986 17.1429 8.66667 17.1429H11.3333C11.5101 17.1429 11.6797 17.0751 11.8047 16.9546C11.9298 16.834 12 16.6705 12 16.5C12 16.3295 11.9298 16.166 11.8047 16.0454C11.6797 15.9249 11.5101 15.8571 11.3333 15.8571H8.66667C8.48986 15.8571 8.32029 15.9249 8.19526 16.0454ZM8.19526 13.474C8.07024 13.5946 8 13.7581 8 13.9286C8 14.0991 8.07024 14.2626 8.19526 14.3831C8.32029 14.5037 8.48986 14.5714 8.66667 14.5714H15.3333C15.5101 14.5714 15.6797 14.5037 15.8047 14.3831C15.9298 14.2626 16 14.0991 16 13.9286C16 13.7581 15.9298 13.5946 15.8047 13.474C15.6797 13.3534 15.5101 13.2857 15.3333 13.2857H8.66667C8.48986 13.2857 8.32029 13.3534 8.19526 13.474ZM8.19526 10.9026C8.07024 11.0231 8 11.1866 8 11.3571C8 11.5276 8.07024 11.6912 8.19526 11.8117C8.32029 11.9323 8.48986 12 8.66667 12H15.3333C15.5101 12 15.6797 11.9323 15.8047 11.8117C15.9298 11.6912 16 11.5276 16 11.3571C16 11.1866 15.9298 11.0231 15.8047 10.9026C15.6797 10.782 15.5101 10.7143 15.3333 10.7143H8.66667C8.48986 10.7143 8.32029 10.782 8.19526 10.9026Z" fill="#5E6674"/>
</svg>
