<svg width="18" height="18" viewBox="0 0 18 18" fill="none" xmlns="http://www.w3.org/2000/svg">
<path fill-rule="evenodd" clip-rule="evenodd" d="M2.25 6.75V16.3125C2.25 16.4617 2.30926 16.6048 2.41475 16.7102C2.52024 16.8157 2.66332 16.875 2.8125 16.875H8.43744V6.75H2.25ZM9.56244 6.75V16.875H15.1875C15.3367 16.875 15.4798 16.8157 15.5852 16.7102C15.6907 16.6048 15.75 16.4617 15.75 16.3125V6.75H9.56244ZM16.875 6.75V16.3125C16.875 16.7601 16.6972 17.1893 16.3807 17.5057C16.0643 17.8222 15.6351 18 15.1875 18H9.56244H8.43744H2.8125C2.36495 18 1.93572 17.8222 1.61926 17.5057C1.30279 17.1893 1.125 16.7601 1.125 16.3125V6.75C0.826631 6.75 0.540483 6.63147 0.329505 6.4205C0.118526 6.20952 0 5.92337 0 5.625V4.5C0 4.20163 0.118526 3.91548 0.329505 3.7045C0.540483 3.49353 0.826631 3.375 1.125 3.375H4.04899C3.97384 3.19739 3.93575 3.00596 3.93744 2.8125C3.93744 2.06658 4.23376 1.35121 4.76121 0.823762C5.28865 0.296316 6.00402 0 6.74994 0C7.49586 0 8.21124 0.296316 8.73868 0.823762C8.83335 0.91843 8.92057 1.01915 8.99997 1.12502C9.07937 1.01915 9.16659 0.91843 9.26126 0.823762C9.78871 0.296316 10.5041 0 11.25 0C11.9959 0 12.7113 0.296316 13.2387 0.823762C13.7662 1.35121 14.0625 2.06658 14.0625 2.8125C14.0625 3.02171 14.0215 3.20921 13.9508 3.375H16.875C17.1734 3.375 17.4595 3.49353 17.6705 3.7045C17.8815 3.91548 18 4.20163 18 4.5V5.625C18 5.92337 17.8815 6.20952 17.6705 6.4205C17.4595 6.63147 17.1734 6.75 16.875 6.75ZM11.25 4.5H11.2433C11.1211 4.50564 10.9987 4.50564 10.8765 4.5H7.14163C7.01349 4.50532 6.88508 4.50571 6.75669 4.50112H6.74994V4.5H6.74319C6.62101 4.50564 6.49863 4.50564 6.37644 4.5H1.125V5.625H16.875V4.5H11.6425C11.5137 4.50537 11.3847 4.50576 11.2556 4.50112H11.25V4.5ZM11.5796 3.375C11.7709 3.36825 12.015 3.34575 12.2524 3.29288C12.4965 3.23888 12.6866 3.16013 12.8036 3.069C12.9004 2.99475 12.9375 2.92275 12.9375 2.81362C12.9376 2.59192 12.8941 2.37237 12.8094 2.1675C12.7246 1.96263 12.6004 1.77647 12.4436 1.61966C12.2869 1.46284 12.1008 1.33844 11.896 1.25356C11.6912 1.16869 11.4717 1.125 11.25 1.125C10.8024 1.125 10.3732 1.30279 10.0568 1.61926C9.74029 1.93572 9.5625 2.36495 9.5625 2.8125C9.5625 2.92275 9.59962 2.9925 9.6975 3.06787C9.81337 3.159 10.0035 3.23662 10.2487 3.29288C10.4652 3.33902 10.6851 3.36646 10.9059 3.375H11.205H11.2219L11.25 3.37388L11.2641 3.375H11.5796ZM7.03835 3.375C7.27812 3.36699 7.51693 3.33916 7.75232 3.29175C7.99644 3.23775 8.18657 3.159 8.30357 3.06787C8.40032 2.99362 8.43744 2.92162 8.43744 2.8125C8.43744 2.36495 8.25965 1.93572 7.94319 1.61926C7.62672 1.30279 7.1975 1.125 6.74994 1.125C6.30239 1.125 5.87317 1.30279 5.5567 1.61926C5.24023 1.93572 5.06244 2.36495 5.06244 2.8125C5.06244 2.92275 5.09957 2.9925 5.19744 3.06787C5.31332 3.159 5.50344 3.23662 5.74869 3.29288C5.96518 3.33902 6.18505 3.36646 6.40587 3.375H6.70494H6.72182L6.74994 3.37388L6.76401 3.375H7.03835Z" fill="#5E6674"/>
</svg>
