<svg width="24" height="24" viewBox="0 0 24 24" fill="none" xmlns="http://www.w3.org/2000/svg">
<path d="M20.5 6H3.5L3 8L5.5 9.5L4.5 8H19.5L18.5 9.5L21 8L20.5 6Z" fill="#166ED8"/>
<path d="M4.5 8H19.5L17.5 14H6.5L4.5 8Z" fill="white"/>
<path d="M12 16C13.1046 16 14 15.1046 14 14C14 12.8954 13.1046 12 12 12C10.8954 12 10 12.8954 10 14C10 15.1046 10.8954 16 12 16Z" fill="#166ED8"/>
<path d="M18 16C19.1046 16 20 15.1046 20 14C20 12.8954 19.1046 12 18 12C16.8954 12 16 12.8954 16 14C16 15.1046 16.8954 16 18 16Z" fill="#166ED8"/>
<path d="M6 16C7.10457 16 8 15.1046 8 14C8 12.8954 7.10457 12 6 12C4.89543 12 4 12.8954 4 14C4 15.1046 4.89543 16 6 16Z" fill="#166ED8"/>
<path d="M9 21C10.3807 21 11.5 19.8807 11.5 18.5C11.5 17.1193 10.3807 16 9 16C7.61929 16 6.5 17.1193 6.5 18.5C6.5 19.8807 7.61929 21 9 21Z" fill="#166ED8"/>
<path d="M15 21C16.3807 21 17.5 19.8807 17.5 18.5C17.5 17.1193 16.3807 16 15 16C13.6193 16 12.5 17.1193 12.5 18.5C12.5 19.8807 13.6193 21 15 21Z" fill="#166ED8"/>
</svg>
